<?xml version="1.0" standalone="no"?>
<!DOCTYPE svg PUBLIC "-//W3C//DTD SVG 20010904//EN"
 "http://www.w3.org/TR/2001/REC-SVG-20010904/DTD/svg10.dtd">
<svg version="1.0" xmlns="http://www.w3.org/2000/svg"
 width="950.000000pt" height="950.000000pt" viewBox="0 0 950.000000 950.000000"
 preserveAspectRatio="xMidYMid meet">
<metadata>
Created by potrace 1.11, written by Peter Selinger 2001-2013
</metadata>
<g transform="translate(0.000000,950.000000) scale(0.100000,-0.100000)"
fill="#000000" stroke="none">
<path d="M4253 8318 c-116 -117 -225 -229 -241 -248 -17 -19 -74 -87 -129
-151 -54 -63 -116 -137 -138 -163 -22 -26 -51 -60 -65 -76 -14 -16 -30 -46
-37 -67 -6 -21 -26 -77 -43 -125 -35 -98 -8 -74 -261 -229 -135 -82 -136 -84
-196 -173 -34 -50 -92 -136 -130 -191 -38 -55 -116 -170 -173 -255 -58 -85
-107 -157 -110 -160 -19 -19 -149 -220 -143 -220 4 0 0 -5 -9 -11 -10 -5 -18
-14 -18 -20 0 -5 -11 -22 -25 -37 -14 -15 -25 -31 -25 -36 0 -5 -7 -14 -15
-20 -11 -8 -237 -717 -260 -816 -2 -8 -4 -15 -5 -15 -1 0 -3 -7 -5 -15 -9 -36
-18 -66 -80 -270 -37 -118 -68 -222 -70 -230 -3 -8 -22 -73 -44 -145 -22 -71
-37 -133 -35 -137 3 -4 1 -8 -4 -8 -8 0 -25 -53 -26 -85 -1 -5 -4 -12 -8 -15
-4 -3 -9 -17 -12 -30 -2 -14 -12 -50 -21 -80 -10 -30 -19 -64 -21 -75 -2 -11
-6 -30 -9 -42 -13 -59 -15 -71 -21 -113 -3 -25 -8 -49 -11 -53 -3 -5 -7 -20
-9 -35 -9 -56 -13 -79 -28 -143 -8 -36 -17 -81 -20 -100 -3 -20 -8 -42 -10
-50 -3 -8 -7 -30 -10 -49 -3 -19 -8 -46 -11 -60 -4 -14 -8 -34 -10 -45 -2 -11
-6 -31 -9 -45 -2 -14 -7 -41 -10 -60 -3 -19 -9 -48 -14 -65 -5 -16 -7 -36 -5
-42 3 -7 1 -13 -4 -13 -4 0 -9 -15 -10 -33 -3 -31 -10 -72 -13 -72 -1 0 -4
-13 -14 -65 -2 -14 -5 -25 -6 -25 -1 0 -4 -22 -7 -50 -2 -27 -9 -56 -15 -63
-6 -7 -8 -15 -5 -19 4 -3 2 -13 -3 -22 -6 -12 -2 -31 10 -59 11 -23 16 -42 12
-42 -4 0 -2 -4 3 -8 20 -14 63 -100 56 -111 -1 -2 3 -7 11 -12 7 -5 13 -12 13
-16 0 -12 68 -128 77 -131 4 -2 8 -14 8 -27 0 -13 5 -27 10 -30 6 -3 10 -15
10 -26 0 -10 4 -19 10 -19 5 0 13 -12 16 -26 4 -14 19 -56 35 -92 15 -36 25
-71 22 -76 -3 -5 -1 -6 4 -3 9 6 29 -39 23 -51 0 -1 6 -10 15 -19 9 -8 14 -22
11 -29 -3 -8 -2 -14 3 -14 8 0 54 -95 55 -115 1 -5 3 -12 7 -15 7 -6 43 -83
44 -92 0 -4 6 -13 12 -20 7 -6 13 -18 13 -25 0 -7 14 -39 30 -70 17 -31 30
-64 30 -74 0 -11 5 -19 10 -19 6 0 10 -6 10 -13 0 -13 29 -43 42 -42 3 0 18
-10 32 -23 15 -12 33 -22 41 -22 9 0 18 -7 21 -15 4 -8 10 -12 15 -9 5 3 9 1
9 -3 0 -5 17 -17 38 -28 20 -11 40 -24 44 -30 5 -7 8 -7 8 0 0 7 3 7 8 0 14
-20 56 -50 47 -35 -5 9 2 7 16 -6 41 -34 108 -74 125 -74 10 0 14 -3 11 -6 -3
-4 22 -20 56 -37 34 -16 65 -35 69 -41 4 -6 8 -7 8 -2 0 5 8 2 18 -7 10 -10
22 -14 25 -10 4 3 7 1 7 -6 0 -7 5 -9 10 -6 6 3 10 1 10 -4 0 -6 3 -10 8 -10
4 1 9 0 12 -1 5 -2 29 -7 53 -13 6 -1 17 -6 23 -10 11 -6 66 -17 102 -19 6 -1
12 -4 12 -7 0 -3 11 -7 25 -7 14 -1 33 -5 43 -9 9 -4 26 -9 37 -10 50 -7 101
-18 110 -25 10 -7 142 -25 158 -22 4 1 7 -5 7 -13 0 -10 10 -15 30 -15 17 0
30 -5 30 -11 0 -5 4 -7 10 -4 5 3 40 -4 77 -15 38 -12 79 -24 93 -26 26 -5 85
-22 110 -31 8 -4 28 -8 45 -10 16 -3 32 -8 35 -11 3 -4 10 -8 16 -9 34 -6 65
-14 119 -29 33 -9 67 -18 75 -19 8 -1 22 -4 30 -7 8 -3 29 -9 46 -15 18 -6 55
-7 90 -2 32 4 102 10 154 14 52 4 109 8 125 10 17 2 68 7 115 11 47 3 99 7
115 9 17 2 64 6 105 9 197 15 263 24 302 40 18 7 42 17 53 21 11 5 26 7 34 6
8 -1 10 2 5 10 -5 8 -2 11 8 6 9 -3 19 -3 23 1 4 4 11 8 16 8 5 1 11 3 14 4 3
1 8 3 13 5 4 1 15 5 25 8 25 10 51 18 57 18 3 1 10 4 15 8 6 5 23 11 39 15 16
4 59 21 95 38 36 17 70 31 76 32 5 1 20 8 33 14 12 7 28 10 34 6 6 -4 8 -3 4
4 -6 11 47 28 73 23 7 -1 10 2 7 7 -5 8 47 27 67 23 4 0 7 4 7 10 0 6 7 9 15
5 8 -3 15 -1 15 4 0 5 12 13 28 16 15 4 57 20 94 35 36 15 69 25 72 21 3 -3 6
0 6 7 0 7 6 11 13 8 6 -2 24 5 40 15 15 11 27 17 27 14 0 -7 64 16 71 26 3 5
19 11 34 14 16 3 34 9 41 15 6 5 14 6 17 2 4 -3 7 -1 7 6 0 7 4 10 8 7 5 -3
20 1 35 9 14 7 28 11 31 7 3 -3 6 -1 6 5 0 6 11 14 25 17 13 3 37 11 52 18 15
6 34 12 42 14 8 1 17 6 20 11 3 4 13 9 21 10 8 2 52 18 98 38 45 19 82 31 82
27 0 -4 4 -1 9 6 4 7 18 14 29 15 12 1 22 5 22 10 0 4 4 6 9 2 5 -3 12 -1 15
3 3 5 26 15 51 22 25 7 45 16 45 19 0 4 10 7 22 8 11 1 25 8 29 15 5 7 9 9 9
4 0 -5 7 -3 15 4 8 7 15 9 15 4 0 -4 5 -3 12 4 7 7 20 12 30 12 10 0 18 5 18
11 0 5 4 8 8 5 5 -3 23 8 41 24 17 16 34 29 37 28 3 0 26 16 49 36 24 20 49
36 54 36 6 0 11 4 11 8 0 4 12 15 28 24 15 9 41 28 57 42 17 14 33 26 38 26 4
0 7 7 7 15 0 8 5 15 11 15 6 0 17 7 25 15 9 8 24 15 35 15 11 0 17 4 14 10 -3
6 0 10 7 10 7 0 30 11 49 25 20 13 39 21 43 18 3 -4 6 -1 6 5 0 7 6 12 14 12
8 0 16 7 20 15 3 8 12 15 21 15 8 0 15 5 15 11 0 5 5 7 10 4 6 -3 10 -2 10 3
0 5 13 15 30 22 17 7 30 16 30 21 0 4 9 11 20 14 22 7 22 23 5 190 -2 17 -6
59 -9 95 -9 96 -16 159 -21 210 -3 25 -7 70 -10 100 -3 30 -7 78 -10 105 -8
79 -13 134 -20 210 -3 39 -8 84 -10 102 -3 18 -7 63 -10 100 -3 37 -7 82 -9
98 -3 17 -8 66 -11 110 -4 44 -9 87 -10 96 -2 8 -6 55 -10 105 -7 82 -20 122
-162 509 -85 231 -167 454 -183 495 -16 41 -46 125 -68 185 -22 61 -46 124
-53 140 -7 17 -13 35 -15 40 -3 14 -44 126 -54 150 -11 24 -92 244 -155 420
-65 182 -87 239 -98 246 -5 3 -8 9 -7 13 1 4 -13 25 -32 47 -18 22 -40 49 -48
59 -8 10 -23 28 -32 39 -10 12 -18 23 -18 26 0 6 -28 40 -58 71 -13 13 -21 24
-18 24 4 0 -33 46 -64 79 -9 9 -26 33 -39 54 -12 20 -26 37 -30 37 -4 0 -20
20 -35 45 -16 25 -33 45 -37 45 -5 0 -9 7 -9 16 0 8 -4 13 -9 9 -5 -3 -12 4
-16 15 -3 11 -11 20 -16 20 -5 0 -9 5 -9 10 0 6 -9 21 -21 33 -12 12 -32 39
-45 60 -13 20 -29 37 -34 37 -6 0 -10 6 -10 13 0 6 -17 31 -39 53 -21 23 -41
49 -44 58 -4 10 -12 14 -18 10 -7 -4 -9 -3 -6 3 3 5 -10 27 -30 49 -19 21 -35
40 -34 42 1 1 -14 22 -34 47 -32 39 -115 95 -115 78 0 -4 -6 1 -13 11 -7 9
-19 18 -28 19 -8 2 -28 13 -43 25 -16 12 -32 19 -37 16 -5 -3 -9 -1 -9 4 0 6
-11 13 -25 16 -14 4 -23 11 -20 17 4 5 3 9 -2 8 -15 -2 -53 13 -53 22 0 5 -9
9 -20 9 -11 0 -20 3 -20 8 0 4 -22 17 -50 30 -27 13 -50 28 -50 33 0 6 -4 8
-9 4 -6 -3 -15 0 -21 7 -16 20 -74 112 -75 120 0 4 -7 15 -15 25 -9 10 -16 20
-17 23 -5 21 -28 60 -35 60 -4 0 -8 5 -8 11 0 6 -9 24 -21 40 -11 16 -17 29
-12 29 4 0 0 5 -9 11 -10 5 -18 16 -18 23 0 8 -7 19 -15 26 -8 7 -12 16 -9 21
3 5 -2 12 -10 15 -9 3 -13 10 -10 15 3 5 0 9 -5 9 -6 0 -11 6 -11 13 0 7 -13
31 -30 53 -16 21 -30 43 -30 47 0 5 -7 15 -15 24 -8 8 -13 19 -10 24 4 5 2 9
-3 9 -5 0 -15 12 -23 28 -8 15 -20 33 -27 41 -17 18 -100 44 -135 42 -16 -1
-42 10 -62 25 -19 15 -35 23 -35 20 0 -15 -42 17 -52 40 -6 13 -17 24 -23 24
-15 0 -47 35 -39 42 3 4 -4 9 -15 13 -11 3 -28 19 -38 35 -9 16 -21 26 -26 23
-4 -3 -11 4 -14 16 -3 11 -14 23 -24 26 -10 4 -19 10 -19 15 0 5 -15 24 -32
43 -18 18 -66 68 -107 110 -40 42 -76 77 -80 77 -3 0 -101 -96 -218 -212z"/>
</g>
</svg>
